<svg xmlns="http://www.w3.org/2000/svg" xmlns:xlink="http://www.w3.org/1999/xlink" width="1080" zoomAndPan="magnify" viewBox="0 0 810 1012.49997" height="1350" preserveAspectRatio="xMidYMid meet" version="1.0"><defs><clipPath id="3c47c71473"><path d="M 104.027344 214 L 705.980469 214 L 705.980469 711.765625 L 104.027344 711.765625 Z M 104.027344 214 " clip-rule="nonzero"/></clipPath></defs><g clip-path="url(#3c47c71473)"><path fill="#ffffff" d="M 705.632812 711.886719 C 674.222656 683.605469 641.96875 662.300781 606.824219 644.371094 C 508.015625 598.996094 482.863281 468.054688 417.394531 386.578125 C 406.5625 330.371094 283.683594 589.367188 261.898438 609.707031 C 221.460938 649.90625 156.832031 660.496094 116.394531 704.546875 C 113.503906 707.074219 111.578125 711.40625 104.359375 710.203125 C 199.917969 547.367188 299.449219 387.539062 396.8125 225.667969 C 406.679688 210.140625 407.523438 210.140625 417.152344 226.027344 C 510.304688 388.863281 621.871094 546.164062 705.632812 711.886719 Z M 457.109375 600.320312 C 467.820312 601.523438 472.152344 598.757812 465.652344 588.042969 C 448.683594 560.003906 431.59375 531.960938 414.625 503.800781 C 409.089844 494.652344 404.636719 493.6875 398.738281 503.800781 C 382.128906 532.082031 364.917969 560.003906 347.949219 588.042969 C 345.902344 591.535156 342.292969 595.023438 345.421875 599.117188 C 347.828125 602.125 351.921875 600.683594 355.410156 600.441406 C 384.054688 598.875 412.578125 594.542969 441.222656 599.238281 C 446.519531 599.476562 451.8125 599.476562 456.988281 600.078125 Z M 457.109375 600.320312 " fill-opacity="1" fill-rule="nonzero"/></g></svg>